<svg xmlns="http://www.w3.org/2000/svg" viewBox="0 0 36 36" fill="none">
  <defs>
    <linearGradient id="g" x1="2" y1="32" x2="32" y2="2">
      <stop stop-color="#7C3AED" />
      <stop offset="0.5" stop-color="#EC4899" />
      <stop offset="1" stop-color="#F97316" />
    </linearGradient>
  </defs>
  <path d="M6 26Q1 24 2 19Q3 14 7 16" stroke="url(#g)" stroke-width="2" fill="none" stroke-linecap="round"/>
  <ellipse cx="15" cy="28" rx="11" ry="5" fill="url(#g)"/>
  <rect x="12" y="22" width="6" height="6" rx="1.5" fill="url(#g)"/>
  <path d="M10.5 22.5Q15 17.5 19.5 22.5" fill="url(#g)"/>
  <circle cx="15" cy="18.5" r="2" fill="url(#g)"/>
  <path d="M24 27Q29 24 28 18Q27.5 14 25 12" stroke="url(#g)" stroke-width="2.5" fill="none" stroke-linecap="round"/>
  <path d="M25 11Q30 7 26 3" stroke="#EC4899" stroke-width="2" fill="none" stroke-linecap="round" opacity="0.5"/>
  <path d="M26 5Q30 1 33 4" stroke="#F97316" stroke-width="1.5" fill="none" stroke-linecap="round" opacity="0.4"/>
  <path d="M31 6L31.7 7.3L33 8L31.7 8.7L31 10L30.3 8.7L29 8L30.3 7.3Z" fill="#F97316" opacity="0.9"/>
  <path d="M23 1.5L23.5 2.5L24.5 3L23.5 3.5L23 4.5L22.5 3.5L21.5 3L22.5 2.5Z" fill="#EC4899" opacity="0.8"/>
</svg>
